<?xml version="1.0" encoding="UTF-8" standalone="no"?>
<!-- Created with Inkscape (http://www.inkscape.org/) -->

<svg
   xmlns:dc="http://purl.org/dc/elements/1.1/"
   xmlns:cc="http://creativecommons.org/ns#"
   xmlns:rdf="http://www.w3.org/1999/02/22-rdf-syntax-ns#"
   xmlns:svg="http://www.w3.org/2000/svg"
   xmlns="http://www.w3.org/2000/svg"
   xmlns:sodipodi="http://sodipodi.sourceforge.net/DTD/sodipodi-0.dtd"
   xmlns:inkscape="http://www.inkscape.org/namespaces/inkscape"
   width="290.7923"
   height="58.652672"
   id="svg5305"
   version="1.1"
   inkscape:version="0.48.4 r9939"
   sodipodi:docname="josecaos-logo.svg">
  <defs
     id="defs5307">
    <filter
       inkscape:collect="always"
       id="filter5957"
       color-interpolation-filters="sRGB">
      <feGaussianBlur
         inkscape:collect="always"
         stdDeviation="0.32568194"
         id="feGaussianBlur5959" />
    </filter>
    <filter
       inkscape:collect="always"
       id="filter6008">
      <feGaussianBlur
         inkscape:collect="always"
         stdDeviation="0.27558474"
         id="feGaussianBlur6010" />
    </filter>
  </defs>
  <sodipodi:namedview
     id="base"
     pagecolor="#ffffff"
     bordercolor="#666666"
     borderopacity="1.0"
     inkscape:pageopacity="0.0"
     inkscape:pageshadow="2"
     inkscape:zoom="2.2137507"
     inkscape:cx="149.4949"
     inkscape:cy="48.951612"
     inkscape:document-units="px"
     inkscape:current-layer="layer1"
     showgrid="false"
     showguides="true"
     inkscape:guide-bbox="true"
     inkscape:window-width="1366"
     inkscape:window-height="721"
     inkscape:window-x="0"
     inkscape:window-y="0"
     inkscape:window-maximized="1"
     showborder="true"
     fit-margin-top="1.1"
     fit-margin-bottom="1"
     fit-margin-right="1"
     fit-margin-left="1">
    <sodipodi:guide
       orientation="0,1"
       position="180.23709,3.6137763"
       id="guide6025" />
    <sodipodi:guide
       orientation="0,1"
       position="205.53353,51.496312"
       id="guide6027" />
  </sodipodi:namedview>
  <metadata
     id="metadata5310">
    <rdf:RDF>
      <cc:Work
         rdf:about="">
        <dc:format>image/svg+xml</dc:format>
        <dc:type
           rdf:resource="http://purl.org/dc/dcmitype/StillImage" />
        <dc:title></dc:title>
      </cc:Work>
    </rdf:RDF>
  </metadata>
  <g
     inkscape:label="Layer 1"
     inkscape:groupmode="layer"
     id="layer1"
     transform="translate(-161.97378,-286.09511)">
    <path
       style="fill:none;stroke:#000000;stroke-width:5.00623273999999974;stroke-linecap:butt;stroke-linejoin:miter;stroke-miterlimit:4;stroke-opacity:1;stroke-dasharray:none;filter:url(#filter6008);opacity:1"
       d="m 488.25616,290.43116 30.66342,0 -0.47061,72.41378 -30.19281,-0.98521 z"
       id="path5317"
       inkscape:connector-curvature="0"
       sodipodi:nodetypes="ccccc"
       transform="matrix(0.54064028,0,0,0.63684485,165.90335,109.69925)" />
    <path
       d="m 265.73549,423.14451 9,-0.072 0,18.072 -9,0 0,-9 0,-9"
       style="font-size:72px;font-style:normal;font-variant:normal;font-weight:normal;font-stretch:normal;line-height:125%;letter-spacing:0px;word-spacing:0px;fill:none;stroke:#000000;stroke-width:3.70000004999999987;stroke-miterlimit:4;stroke-opacity:1;font-family:Atari;-inkscape-font-specification:Atari"
       id="path5962"
       inkscape:connector-curvature="0"
       transform="matrix(0.69716194,0,0,0.71687364,-16.3794,17.127642)" />
    <path
       d="m 198.25356,294.66134 6.27445,0 0,6.45186 -6.27445,0 0,-6.45186 m -6.27446,12.90372 12.54891,0 0,6.45186 0,6.45187 0,6.45186 0,6.45186 -6.27445,0 0,-6.45186 0,-6.45186 0,-6.45187 -6.27446,0 0,-6.45186 m -6.27446,25.80745 12.54892,0 0,6.45187 -6.27446,0 -6.27446,0 0,-6.45187"
       style="font-size:72px;font-style:normal;font-variant:normal;font-weight:normal;font-stretch:normal;line-height:125%;letter-spacing:0px;word-spacing:0px;fill:none;stroke:#000000;stroke-width:2.61571169;stroke-miterlimit:4;stroke-opacity:1;font-family:Atari;-inkscape-font-specification:Atari"
       id="path5964"
       inkscape:connector-curvature="0" />
    <path
       d="m 223.11744,301.1132 6.32465,0 -0.0502,6.45186 -6.27445,0 0,-6.45186 m -6.27446,6.45186 6.27446,0 0,12.90373 0,6.45186 -6.27446,0 0,-6.45186 0,-6.45187 0,-6.45186 m 12.54891,0 6.27446,0.0516 0,12.85211 0,6.45186 -6.27446,0 0,-6.45186 0,-6.45187 0,-6.45186 m -6.27445,19.35559 6.27445,0 0,6.45186 -6.27445,0 0,-6.45186"
       style="font-size:72px;font-style:normal;font-variant:normal;font-weight:normal;font-stretch:normal;line-height:125%;letter-spacing:0px;word-spacing:0px;fill:none;stroke:#000000;stroke-width:2.61571169;stroke-miterlimit:4;stroke-opacity:1;font-family:Atari;-inkscape-font-specification:Atari"
       id="path5966"
       inkscape:connector-curvature="0" />
    <path
       d="m 254.24227,301.1132 12.54891,0 0,6.45186 -6.27445,0 -12.54892,0 6.27446,0.0516 0,-6.50348 m -6.27446,6.45186 6.27446,0.0516 0,6.40024 -6.27446,0 0,-6.45186 m 6.27446,6.45186 6.32465,0 -0.0502,6.45187 -6.27446,0 0,-6.45187 m 6.27446,6.45187 6.27445,-0.0516 0,6.50348 -6.22426,0 -0.0502,-6.45186 m -12.54892,6.45186 18.82337,0 -6.22426,0 -0.0502,6.45186 -6.27446,0 -6.27446,0 0,-6.45186"
       style="font-size:72px;font-style:normal;font-variant:normal;font-weight:normal;font-stretch:normal;line-height:125%;letter-spacing:0px;word-spacing:0px;fill:none;stroke:#000000;stroke-width:2.61571169;stroke-miterlimit:4;stroke-opacity:1;font-family:Atari;-inkscape-font-specification:Atari"
       id="path5968"
       inkscape:connector-curvature="0" />
    <path
       d="m 283.87048,301.1132 6.32465,0 -0.0502,6.45186 -6.27446,0 0,-6.45186 m -6.27446,6.45186 6.27446,0 0,6.45186 6.27446,0 0,-6.45186 6.27445,0 0,6.45186 0,6.45187 -6.27445,0 -6.27446,0 0,6.45186 6.27446,0 6.27445,0 0,6.45186 -6.27445,0 -6.27446,0 0,-6.45186 -6.27446,0 0,-6.45186 0,-6.45187 0,-6.45186"
       style="font-size:72px;font-style:normal;font-variant:normal;font-weight:normal;font-stretch:normal;line-height:125%;letter-spacing:0px;word-spacing:0px;fill:none;stroke:#000000;stroke-width:2.61571169;stroke-miterlimit:4;stroke-opacity:1;font-family:Atari;-inkscape-font-specification:Atari"
       id="path5970"
       inkscape:connector-curvature="0" />
    <path
       d="m 314.00206,294.66134 6.32466,-0.0516 -0.0502,6.50348 -6.27446,0 0,-6.45186 m -6.27445,6.45186 6.27445,0 0,12.90372 0,6.45187 0,6.45186 -6.27445,0 0,-6.45186 0,-6.45187 0,-6.45186 0,-6.45186 m 12.54891,0 6.27446,0 0,6.45186 -6.27446,0 0,-6.45186 m 0,19.35559 6.27446,-0.0516 0,6.50348 -6.27446,0 0,-6.45186 m -6.27446,6.45186 6.27446,0 0,6.45186 -6.27446,0 0,-6.45186"
       style="font-size:72px;font-style:normal;font-variant:normal;font-weight:normal;font-stretch:normal;line-height:125%;letter-spacing:0px;word-spacing:0px;fill:none;stroke:#000000;stroke-width:2.61571169;stroke-miterlimit:4;stroke-opacity:1;font-family:Atari;-inkscape-font-specification:Atari"
       id="path5972"
       inkscape:connector-curvature="0" />
    <path
       d="m 349.95493,326.92065 0,-6.50348 -6.32466,0.0516 0,6.45186 6.32466,0 m -12.59911,-25.80745 12.54891,0 0,6.45186 6.27446,0 0,6.45186 0,6.45187 0,6.45186 0,6.45186 -6.27446,0 -6.27446,0 0,-6.45186 -6.27445,0 0,-6.45186 6.27445,0 0,-6.45187 6.27446,0 0,-6.45186 -6.27446,0 -6.27445,0 0,-6.45186"
       style="font-size:72px;font-style:normal;font-variant:normal;font-weight:normal;font-stretch:normal;line-height:125%;letter-spacing:0px;word-spacing:0px;fill:none;stroke:#000000;stroke-width:2.61571169;stroke-miterlimit:4;stroke-opacity:1;font-family:Atari;-inkscape-font-specification:Atari"
       id="path5974"
       inkscape:connector-curvature="0" />
    <path
       d="m 372.75511,301.1132 6.32465,0 -0.0502,6.45186 -6.27445,0 0,-6.45186 m -6.27446,6.45186 6.27446,0 0,12.90373 0,6.45186 -6.27446,0 0,-6.45186 0,-6.45187 0,-6.45186 m 12.54891,0 6.27446,0.0516 0,12.85211 0,6.45186 -6.27446,0 0,-6.45186 0,-6.45187 0,-6.45186 m -6.27445,19.35559 6.27445,0 0,6.45186 -6.27445,0 0,-6.45186"
       style="font-size:72px;font-style:normal;font-variant:normal;font-weight:normal;font-stretch:normal;line-height:125%;letter-spacing:0px;word-spacing:0px;fill:none;stroke:#000000;stroke-width:2.61571169;stroke-miterlimit:4;stroke-opacity:1;font-family:Atari;-inkscape-font-specification:Atari"
       id="path5976"
       inkscape:connector-curvature="0" />
    <path
       d="m 403.39007,301.1132 12.54891,0 0,6.45186 -6.27445,0 -12.54892,0 6.27446,0.0516 0,-6.50348 m -6.27446,6.45186 6.27446,0.0516 0,6.40024 -6.27446,0 0,-6.45186 m 6.27446,6.45186 6.32465,0 -0.0502,6.45187 -6.27446,0 0,-6.45187 m 6.27446,6.45187 6.27445,-0.0516 0,6.50348 -6.22426,0 -0.0502,-6.45186 m -12.54892,6.45186 18.82337,0 -6.22426,0 -0.0502,6.45186 -6.27446,0 -6.27446,0 0,-6.45186"
       style="font-size:72px;font-style:normal;font-variant:normal;font-weight:normal;font-stretch:normal;line-height:125%;letter-spacing:0px;word-spacing:0px;fill:none;stroke:#000000;stroke-width:2.61571169;stroke-miterlimit:4;stroke-opacity:1;font-family:Atari;-inkscape-font-specification:Atari"
       id="path5978"
       inkscape:connector-curvature="0" />
  </g>
</svg>
