<?xml version="1.0" encoding="UTF-8" standalone="no"?>
<!-- Created with Inkscape (http://www.inkscape.org/) -->

<svg
   xmlns:dc="http://purl.org/dc/elements/1.1/"
   xmlns:cc="http://creativecommons.org/ns#"
   xmlns:rdf="http://www.w3.org/1999/02/22-rdf-syntax-ns#"
   xmlns:svg="http://www.w3.org/2000/svg"
   xmlns="http://www.w3.org/2000/svg"
   xmlns:sodipodi="http://sodipodi.sourceforge.net/DTD/sodipodi-0.dtd"
   xmlns:inkscape="http://www.inkscape.org/namespaces/inkscape"
   id="svg2"
   version="1.1"
   inkscape:version="0.48.4 r9939"
   width="766.71875"
   height="990.64819"
   xml:space="preserve"
   sodipodi:docname="nr.svg"><metadata
     id="metadata8"><rdf:RDF><cc:Work
         rdf:about=""><dc:format>image/svg+xml</dc:format><dc:type
           rdf:resource="http://purl.org/dc/dcmitype/StillImage" /><dc:title></dc:title></cc:Work></rdf:RDF></metadata><defs
     id="defs6" /><sodipodi:namedview
     pagecolor="#ffffff"
     bordercolor="#666666"
     borderopacity="1"
     objecttolerance="10"
     gridtolerance="10"
     guidetolerance="10"
     inkscape:pageopacity="0"
     inkscape:pageshadow="2"
     inkscape:window-width="1079"
     inkscape:window-height="647"
     id="namedview4"
     showgrid="false"
     inkscape:zoom="0.55080132"
     inkscape:cx="430.30496"
     inkscape:cy="570.27141"
     inkscape:window-x="0"
     inkscape:window-y="0"
     inkscape:window-maximized="0"
     inkscape:current-layer="g10" /><g
     id="g10"
     inkscape:groupmode="layer"
     inkscape:label="nrlogobyn"
     transform="matrix(1.25,0,0,-1.25,0,990.64819)"><g
       id="g12"
       transform="matrix(1,0,0,-1,-47.930168,120.55164)"><path
         d="m 389.34766,-255.28906 c 0,0 85.80859,-57.40235 85.80859,-57.40235 0,0 -48.47266,-72.45996 -48.47266,-72.45996 0,0 72.4502,-48.48779 72.4502,-48.48779 0,0 -57.41504,-85.80322 -57.41504,-85.80322 0,0 -72.46191,48.47217 -72.46191,48.47217 0,0 -48.47364,-72.44776 -48.47364,-72.44776 0,0 -85.80664,57.41455 -85.80664,57.41455 0,0 48.46973,72.44971 48.46973,72.44971 0,0 -72.4502,48.48633 -72.4502,48.48633 0,0 31.00147,46.33496 31.00147,46.33496 0.005,0.89941 0.005,1.80859 0.0132,2.71484 -0.50683,1.51563 -1.01465,3.01953 -1.50439,4.52637 0.68261,1.56543 1.38818,3.13086 2.09326,4.69043 -0.30078,0.78906 -0.59717,1.58984 -0.89209,2.38672 -0.47022,-0.04 -0.94092,-0.0713 -1.40479,-0.10645 -0.0952,-0.51367 -0.19482,-1.03906 -0.28418,-1.55371 -0.2041,0.90625 -0.40332,1.81543 -0.60986,2.72168 1.44287,2.30762 2.89014,4.625 4.34326,6.93457 -0.48291,0.69336 -0.95068,1.39258 -1.4414,2.07813 -0.22803,0.78125 -0.46436,1.55664 -0.69336,2.33789 0.48242,0.0449 0.96533,0.0967 1.4414,0.14941 0.29493,0.40234 0.58008,0.81055 0.86963,1.21582 1.17481,1.1582 1.28955,2.98438 0.91016,4.49121 0.30713,0.36817 0.62158,0.73633 0.93603,1.09668 0.39112,-0.0518 0.78321,-0.11719 1.16846,-0.17676 0.39844,-0.88769 0.78955,-1.7705 1.1958,-2.6582 -0.12744,-0.71777 -0.24219,-1.4375 -0.35693,-2.15527 -0.24121,-0.45801 -0.47608,-0.91407 -0.71631,-1.37403 0.15039,-1.4414 0.29346,-2.875 0.45117,-4.30175 -0.59765,-2.53028 -1.19336,-5.06641 -1.76855,-7.60059 0.21777,-0.96777 0.4292,-1.93555 0.64648,-2.89746 -0.67676,-1.62402 -1.35156,-3.25684 -2.00928,-4.88184 0.31983,-0.88672 0.63379,-1.76953 0.94776,-2.65625 0,0 2.90088,4.33789 2.90088,4.33789 -0.11475,0.89844 -0.22852,1.79688 -0.33203,2.69727 0.31347,0.28809 0.63964,0.57715 0.95361,0.8623 0.27197,2.60547 0.64599,6.66993 2.97998,8.33106 -0.29102,1.27148 -0.56787,2.52832 -0.85107,3.79199 0.40966,0.20606 0.82666,0.40918 1.23535,0.62402 0.47802,1.14454 0.95947,2.28614 1.43017,3.4375 0.81494,2.5 2.89014,6.18848 2.48438,8.81934 -0.13184,0.87598 -0.40235,1.74219 -0.57764,2.61133 0.27881,0.27441 0.55518,0.53418 0.82568,0.80078 -0.72949,1.0293 -1.44677,2.05566 -2.1831,3.08984 -0.13867,1.16016 0.084,2.48145 0.88672,3.3877 0.35644,0.33594 0.71728,0.67187 1.07812,1.01855 0.90088,1.77051 1.81055,3.53125 2.72901,5.30176 0.35351,0.16895 0.72168,0.35742 1.08447,0.53613 0.51172,0.0244 1.02637,0.0527 1.53223,0.0752 0.77197,1.08008 1.53711,2.14844 2.30957,3.21094 2.59961,1.6123 5.19873,3.29297 7.96728,4.62695 0.75342,0.20215 1.5376,0.39746 2.29834,0.6084 0.33887,0.65234 0.66309,1.31933 0.99512,1.98047 1.33349,0.42676 2.67187,0.8623 4.00439,1.29394 1.37598,-0.64062 3.54151,-1.97949 5.10987,-1.58105 0.71826,0.25488 1.4541,0.50879 2.18261,0.77637 1.44141,2.10839 2.88379,4.22167 4.31934,6.33105 0.95215,0.18652 1.89307,0.37207 2.8291,0.56445 0.69238,0.30957 1.37598,0.62989 2.05615,0.95996 -0.0718,0.28614 -0.13818,0.58399 -0.21093,0.88575 1.57519,0.30859 3.15429,0.61816 4.72753,0.93847 0.61182,0.6875 1.22657,1.36817 1.84131,2.04785 1.94922,0.40137 3.88868,0.79493 5.83203,1.19239 0.56934,0.67968 1.13965,1.3584 1.70704,2.03515 1.32519,1.66114 2.63574,3.31836 3.95605,4.96778 0.25488,0.24804 0.50684,0.48632 0.75391,0.7334 -0.24707,1.08593 -0.49903,2.16894 -0.75391,3.25097 0.22363,0.68262 0.43457,1.36133 0.65234,2.04004 0.36622,0.26758 0.73633,0.53906 1.10254,0.80859 0.42871,0.0293 0.84961,0.0508 1.27442,0.0811 0.19922,-0.5957 0.39648,-1.19238 0.59765,-1.77441 0.4502,0.41015 0.91407,0.8291 1.37305,1.24218 0.25879,0.76074 0.52441,1.51563 0.78906,2.26758 0.22461,0.35938 0.45313,0.73047 0.69043,1.0957 0.34375,0.39161 0.68653,0.78711 1.0293,1.18164 0.42187,0.0889 0.8291,0.18457 1.24902,0.26661 0.20508,-0.33887 0.39746,-0.67676 0.60547,-1.01563 1.00488,0.21875 2.02442,0.43457 3.03906,0.65527 0.72852,1.18457 1.46485,2.3711 2.20606,3.55469 1.32617,0.28125 2.64844,0.57129 3.96387,0.86231 0.1748,-0.79785 0.35449,-1.58985 0.54101,-2.39258 2.51465,-2.57813 5.42871,-1.59473 6.93164,1.32617 -0.2539,1.09863 -0.50195,2.2002 -0.74804,3.30371 0.36914,0.91797 0.74121,1.83008 1.10937,2.74219 0.22266,0.44141 0.44043,0.87891 0.66504,1.30957 -0.37988,1.7168 -0.76856,3.42578 -1.14941,5.1543 -0.38184,0.29296 -0.76368,0.59277 -1.1504,0.89843 -0.27636,1.23243 -0.54101,2.45215 -0.80761,3.67871 0.33105,0.47071 0.68066,0.92286 1.02636,1.38672 -2.13769,1.32227 -4.27148,2.64453 -6.39941,3.95703 -0.30176,1.41114 -0.61621,2.82422 -0.91992,4.22266 -1.54981,0.16992 -3.09766,0.31934 -4.65723,0.48242 -1.7207,2.47461 -3.44629,4.95215 -5.16601,7.42969 -0.0293,1.58887 -0.0498,3.18066 -0.0791,4.76074 0.9707,0.16406 1.94335,0.3252 2.9082,0.49317 -0.22363,0.77343 -0.45313,1.54687 -0.67676,2.31738 -1.97656,1.37402 -3.96289,2.75 -5.93457,4.12012 -0.15039,2.81054 -0.29004,5.60839 -0.43945,8.41406 0.98925,0.92285 1.99023,1.86328 2.97949,2.79199 2.43652,9.41992 4.94629,18.82617 7.50976,28.22168 -0.29003,1.38184 -0.57324,2.7793 -0.86425,4.16992 2.31836,2.66211 4.64062,5.3418 6.96679,7.98731 0.59668,0.14941 1.18848,0.28613 1.79102,0.43066 0.34961,0.38086 0.71484,0.77246 1.06934,1.14649 2.33203,2.5205 4.67871,5.02929 7.03808,7.52832 -0.3125,1.458 -0.62695,2.90429 -0.94629,4.37597 0.57129,0.54395 1.13867,1.08106 1.71387,1.61133 -0.55176,0.81055 -1.09863,1.61816 -1.64941,2.42481 -0.27051,1.26074 -0.54786,2.5332 -0.82422,3.7998 0.38086,0.25879 0.76172,0.51758 1.14355,0.77344 -0.31933,1.46386 -0.63769,2.93066 -0.95703,4.4082 -0.59766,0.20508 -1.19531,0.40527 -1.79785,0.60254 -0.0127,0.34473 -0.0205,0.6748 -0.0293,1.02148 0.28809,0.34864 0.58203,0.69336 0.88477,1.042 -0.60742,2.79882 -1.21094,5.62793 -1.82032,8.43847 -0.85058,1.11035 -1.69628,2.23731 -2.54687,3.34766 -0.48828,2.25391 -0.95801,4.50976 -1.43848,6.77344 0.88575,1.04297 0.98731,2.38769 -0.44238,2.89941 -0.23535,1.09863 -0.46582,2.19727 -0.69824,3.29297 0.3623,0.56348 0.72265,1.09863 1.08496,1.64648 -0.12207,0.59961 -0.24805,1.19629 -0.36816,1.77539 -0.27149,0.13379 -0.54395,0.28223 -0.82129,0.42969 0.62402,1.7041 0.61816,3.81543 -0.73633,5.1543 -0.42676,0.90137 -0.85059,1.79785 -1.28418,2.69141 -0.33692,1.63964 -0.68848,3.28222 -1.03223,4.91503 -0.91015,0.70606 -1.82031,1.41114 -2.72949,2.11036 -0.10938,0.55175 -0.22559,1.09179 -0.33301,1.64746 0.43945,0.67675 0.87305,1.33886 1.32227,2.0205 -0.66309,3.16114 -1.32227,6.30762 -1.98535,9.47559 0.21582,0.04883 0.43945,0.10254 0.65722,0.15723 -0.26562,1.27246 -0.53613,2.55078 -0.79687,3.81738 0.65136,0.14453 1.30176,0.2959 1.95508,0.44531 0.42187,-1.99707 0.84863,-3.99804 1.27734,-6.00097 0.36328,-0.66309 0.90137,-0.40723 1.18359,0.13574 -1.20703,5.58984 -2.40722,11.18262 -3.59961,16.76465 -0.46972,0.12207 -0.9414,0.23535 -1.41308,0.34472 -0.0967,0.42676 -0.18164,0.85547 -0.27246,1.28418 0.52734,0.92383 1.04882,1.85157 1.57031,2.77344 -0.42871,0.21875 -0.86133,0.4375 -1.2959,0.65332 -0.082,0.37207 -0.15918,0.74805 -0.24805,1.12109 0.78711,0.19434 1.58692,0.37012 2.37403,0.54297 0.33789,0.47754 0.67773,0.93457 1.02051,1.40821 -0.69043,0.14941 -1.39942,0.30273 -2.08497,0.45605 -0.12597,0.62793 -0.27246,1.24414 -0.40722,1.87012 0.27344,0.25293 0.54394,0.49902 0.82129,0.74219 0.27734,0.23144 0.55468,0.43945 0.84472,0.65039 0.10352,0.52539 0.20508,1.03222 0.30664,1.54394 0.46387,0.3916 0.917,0.77637 1.3711,1.1836 1.26465,0.20312 2.52051,0.3916 3.79199,0.5791 0.47266,0.51757 0.9541,1.02636 1.43555,1.51953 -0.0889,0.35058 -0.16895,0.7041 -0.2461,1.05078 0.31934,0.3291 0.64551,0.66504 0.97071,1.00098 1.36816,0.28418 2.73339,0.55371 4.10156,0.81836 1.08008,-0.44532 2.1582,-0.87403 3.23828,-1.32032 -0.92773,-0.17578 -1.8457,-0.3457 -2.76855,-0.51953 -0.91016,-0.94726 -1.80762,-1.89355 -2.7129,-2.8457 0.31348,-1.26172 0.62207,-2.52051 0.92286,-3.77735 -0.42286,-0.54882 -0.85254,-1.10351 -1.27344,-1.6582 -0.44629,-0.90332 0.0361,-1.6875 0.95898,-1.89844 0.64551,0.12598 1.28516,0.25293 1.93067,0.36817 0.24121,-0.97168 0.48535,-1.96875 0.72363,-2.93946 0.89746,-0.72265 1.79785,-1.43457 2.6875,-2.15917 0.18945,-0.74024 0.37598,-1.49415 0.5625,-2.23047 -0.81836,-0.9336 -1.63965,-1.87696 -2.45313,-2.81836 0.125,-0.55469 0.26465,-1.08594 0.38965,-1.63477 1.46875,-0.68555 2.93848,-1.37305 4.40528,-2.05469 0.17382,-0.72265 0.34179,-1.43066 0.52343,-2.14843 0,0 -0.89062,-1.04786 -0.89062,-1.04786 1.27637,-0.61621 2.54883,-1.22656 3.80469,-1.84277 0.085,-0.33594 0.17578,-0.67578 0.25976,-1.01074 -0.61133,-0.12012 -1.21191,-0.2334 -1.82422,-0.36328 0.32715,-1.30371 0.64551,-2.60059 0.95996,-3.89551 0.47071,0.45801 0.94141,0.90918 1.40723,1.36914 0.72266,0.13867 1.43457,0.27637 2.15234,0.41504 0.51954,-2.01953 1.03223,-4.05176 1.53321,-6.08594 2.44629,0.46289 4.90722,0.92481 7.37109,1.35938 2.83301,-1.35742 6.16895,-2.97364 8.13379,-5.51856 -0.15625,-1.40136 -0.31152,-2.79394 -0.47363,-4.18066 -0.73047,-1.06152 -1.45606,-2.125 -2.17871,-3.19043 0.0723,-0.29004 0.1416,-0.58008 0.22168,-0.85352 0.66894,0.16895 1.333,0.32618 2.00195,0.50196 -0.10156,0.37304 -0.19922,0.75488 -0.30566,1.14648 1.13867,0.1875 2.26855,0.39746 3.39648,0.5791 0.085,0.37012 0.16113,0.72461 0.24512,1.09278 1.29101,0.21093 2.59082,0.42773 3.88379,0.63769 1.17871,-0.63183 2.35156,-1.2832 3.53027,-1.93652 0.18945,-0.66309 0.36816,-1.31934 0.55273,-1.9834 0.33594,0.05566 0.67188,0.10937 1.01368,0.1709 0.24804,-0.9209 0.50097,-1.83008 0.74707,-2.73438 0.45312,0.05469 0.90625,0.14649 1.35742,0.21094 0.35644,0.21094 0.71387,0.41016 1.06347,0.61621 2.37793,-1.32617 4.75196,-2.67773 7.13086,-4.03516 -0.0205,-0.77929 -0.0351,-1.54199 -0.0605,-2.30957 2.76172,-1.59375 5.49902,-3.19238 8.2373,-4.81054 0.52735,-2.66211 1.04297,-5.3418 1.54981,-8.00293 4.2832,-1.75879 8.54004,-3.53418 12.79004,-5.3584 2.66406,0.38184 5.32324,0.76465 7.99511,1.13672 1.40039,-1.42969 2.79492,-2.86817 4.16895,-4.29395 1.79492,-1.4541 3.58691,-2.89941 5.36621,-4.34961 0.35156,-1 0.68945,-2.00097 1.03418,-2.99511 1.09082,-1.01075 2.16992,-2.02735 3.25586,-3.04786 0.92285,-1.81445 1.83984,-3.65429 2.74414,-5.47558 0.87988,-3.11817 1.74805,-6.22461 2.60644,-9.34277 2.19727,-1.38672 4.38965,-2.78321 6.58106,-4.18067 0.16113,-0.6084 0.33301,-1.21875 0.49316,-1.84082 3.88282,-2.64062 7.74805,-5.31836 11.59278,-8.02734 0.39746,-1.47754 0.79004,-2.96778 1.18945,-4.45606 0.28027,0.0459 0.58496,0.083 0.86719,0.13574 0.37597,-1.38964 0.74707,-2.80273 1.11035,-4.21289 -0.1582,-1.26562 -0.33203,-2.54687 -0.49121,-3.80664 -0.1836,-0.58105 -0.3711,-1.13867 -0.56348,-1.70117 -1.32519,-0.24023 -2.66894,-0.46972 -3.99512,-0.69824 -2.22558,-3.81348 -4.46289,-7.61426 -6.71191,-11.39551 -1.60742,-0.30762 -3.20996,-0.60644 -4.81348,-0.9209 -1.44629,-0.83398 -2.88867,-1.67187 -4.3291,-2.50488 -0.84961,0.0859 -1.7041,0.16309 -2.55176,0.24316 -0.68261,-0.13378 -1.35937,-0.27734 -2.04785,-0.40429 0.36231,-1.47852 0.71387,-2.95117 1.06153,-4.44043 -2.94141,-2.09473 -5.88282,-4.19238 -8.82422,-6.28321 -1.02246,0.41504 -2.03223,0.83204 -3.04883,1.26075 0.26367,-1.14942 0.53516,-2.28809 0.80176,-3.4209 -2.2334,-0.45899 -4.46387,-0.94141 -6.69532,-1.39844 -0.0957,-0.6582 -0.20019,-1.31641 -0.29687,-1.96582 0.91211,-0.74902 1.82519,-1.49805 2.74512,-2.26562 -0.50489,-4.25098 -1.04395,-8.48926 -1.57618,-12.73731 -1.50488,-1.85058 -5.13671,-7.74512 -7.72363,-7.45508 -1.23535,0.35742 -2.1123,-1.58691 -2.48828,-2.47363 -2.54199,-0.50391 -5.10644,-1.00586 -7.65332,-1.50781 -0.72656,-0.7461 -1.45703,-1.48242 -2.17969,-2.21778 -0.15918,-1.3291 -0.32031,-2.65332 -0.47265,-3.96972 -1.18946,-1.87989 -2.37207,-3.76758 -3.55762,-5.63672 -0.91113,-0.2002 -1.83496,-0.41113 -2.75684,-0.60352 0.12598,-1.1416 0.24512,-2.27929 0.36817,-3.40722 -0.86914,-0.71485 -1.74219,-1.42676 -2.61328,-2.13868 -0.60254,-0.20117 -1.19727,-0.39843 -1.80274,-0.59765 0.17481,-0.79297 0.35156,-1.5918 0.53028,-2.38672 -1.38672,-1.0166 -2.76856,-2.03809 -4.1543,-3.06543 -1.80371,1.15332 -3.60059,2.29199 -5.39063,3.44336 -0.63672,-0.97852 -1.25586,-1.95508 -1.88476,-2.93555 -1.72559,-0.38672 -3.44434,-0.77051 -5.16406,-1.14941 -0.7168,-1.12402 -1.43262,-2.25195 -2.15528,-3.37695 -1.34863,-1.19239 -2.69238,-2.38477 -4.04297,-3.58692 -1.98535,1.10449 -3.9834,2.20801 -5.96777,3.31445 0.33398,1.20606 0.8457,2.92579 0.24219,4.11231 -1.77246,2.49609 -4.05274,0.36328 -3.80469,-1.99707 0.80957,-1.04785 1.62891,-2.08301 2.44238,-3.12793 -0.25293,-0.64063 -0.48828,-1.27539 -0.74121,-1.90137 0.77832,-1.43262 1.54395,-2.86719 2.31641,-4.30469 -0.39844,-0.21875 -0.79688,-0.42871 -1.20117,-0.64843 -2.21387,1.4082 -4.42579,2.82226 -6.64454,4.22754 -0.88281,-0.22364 -1.76269,-0.44239 -2.64453,-0.67676 -0.10156,0.5 -0.22265,0.98926 -0.33105,1.47949 -2.50977,-0.50684 -4.7041,0.77051 -5.16113,3.29883 -1.4668,0.83984 -2.93262,1.6748 -4.39747,2.51465 -0.25488,1.10449 -0.49609,2.20508 -0.74316,3.30468 -0.60644,-0.1289 -1.21875,-0.27148 -1.82812,-0.39453 0.29492,-1.28906 0.5791,-2.57617 0.87011,-3.8623 -2.6914,-4.54981 -7.82422,-5.41309 -12.23828,-3.03125 -0.7793,-0.16602 -1.5498,-0.33594 -2.3418,-0.50684 -0.94042,-1.40625 -2.66601,-3.82812 -4.63671,-3.47754 -0.7959,-1.4375 -1.58789,-2.87597 -2.37891,-4.3125 0.59961,-2.59277 1.20215,-5.19629 1.80273,-7.78027 0.47168,0.0967 0.94141,0.20117 1.4209,0.2959 0.59668,-2.58692 1.20508,-5.16016 1.81348,-7.74219 -1.59766,-1.31445 -3.19531,-2.64746 -4.79492,-3.96484 -1.34961,-0.26367 -2.6836,-0.53809 -4.03321,-0.80274 -1.27929,0.49121 -2.54589,0.98633 -3.81836,1.4795 -1.7871,-0.34864 -3.57714,-0.70606 -5.35546,-1.05762 -1.34668,0.3623 -2.6919,0.71875 -4.02442,1.07715 1.30762,-1.23536 2.62354,-2.45703 3.9375,-3.68653 0.52539,-1.92675 1.05567,-3.85254 1.59375,-5.77832 0.46973,-0.47461 0.94141,-0.92773 1.41113,-1.39258 0.40235,-1.6289 0.81348,-3.26367 1.21875,-4.8955 0.56055,-0.33106 1.12208,-0.64356 1.68262,-0.96582 0.44531,-1.80078 0.89356,-3.59864 1.35254,-5.38965 -4.34473,0.76562 -8.68652,1.5498 -13.03613,2.35937 -0.43457,1.73633 -0.87988,3.46387 -1.30811,5.19825 -0.67187,1.17578 -2.89599,5.47167 -4.6084,4.43261 -1.1289,-0.35449 -0.42822,-1.18164 0.22266,-1.59472 -1.20557,-0.21973 -2.42529,-0.44629 -3.64307,-0.65332 -1.79687,1.13574 -4.21045,2.08203 -6.33252,1.37597 -5.08544,-3.95019 -8.59619,-10.31543 -6.95361,-16.80371 0.67627,-2.49414 1.34961,-4.99316 2.03223,-7.49414 1.09619,-0.80566 2.19482,-1.62793 3.29199,-2.44043 0.25977,-0.5332 0.51318,-1.06641 0.77246,-1.5918 -0.43994,-0.0693 -0.88672,-0.13183 -1.32129,-0.19238 0,0 56.87988,-38.07226 56.87988,-38.07226 0,0 48.48536,72.45117 48.48536,72.45117 z"
         style="fill:none;stroke:#000000;stroke-opacity:1"
         id="path22"
         inkscape:connector-curvature="0" /><path
         d="m 389.34766,-255.28906 c 0,0 85.80859,-57.40235 85.80859,-57.40235 0,0 -48.47266,-72.45996 -48.47266,-72.45996 0,0 72.4502,-48.48779 72.4502,-48.48779 0,0 -57.41504,-85.80322 -57.41504,-85.80322 0,0 -72.46191,48.47217 -72.46191,48.47217 0,0 -48.47364,-72.44776 -48.47364,-72.44776 0,0 -85.80664,57.41455 -85.80664,57.41455 0,0 48.46973,72.44971 48.46973,72.44971 0,0 -72.4502,48.48633 -72.4502,48.48633 0,0 31.00147,46.33496 31.00147,46.33496 0.005,0.89941 0.005,1.80859 0.0132,2.71484 -0.50683,1.51563 -1.01465,3.01953 -1.50439,4.52637 0.68261,1.56543 1.38818,3.13086 2.09326,4.69043 -0.30078,0.78906 -0.59717,1.58984 -0.89209,2.38672 -0.47022,-0.04 -0.94092,-0.0713 -1.40479,-0.10645 -0.0952,-0.51367 -0.19482,-1.03906 -0.28418,-1.55371 -0.2041,0.90625 -0.40332,1.81543 -0.60986,2.72168 1.44287,2.30762 2.89014,4.625 4.34326,6.93457 -0.48291,0.69336 -0.95068,1.39258 -1.4414,2.07813 -0.22803,0.78125 -0.46436,1.55664 -0.69336,2.33789 0.48242,0.0449 0.96533,0.0967 1.4414,0.14941 0.29493,0.40234 0.58008,0.81055 0.86963,1.21582 1.17481,1.1582 1.28955,2.98438 0.91016,4.49121 0.30713,0.36817 0.62158,0.73633 0.93603,1.09668 0.39112,-0.0518 0.78321,-0.11719 1.16846,-0.17676 0.39844,-0.88769 0.78955,-1.7705 1.1958,-2.6582 -0.12744,-0.71777 -0.24219,-1.4375 -0.35693,-2.15527 -0.24121,-0.45801 -0.47608,-0.91407 -0.71631,-1.37403 0.15039,-1.4414 0.29346,-2.875 0.45117,-4.30175 -0.59765,-2.53028 -1.19336,-5.06641 -1.76855,-7.60059 0.21777,-0.96777 0.4292,-1.93555 0.64648,-2.89746 -0.67676,-1.62402 -1.35156,-3.25684 -2.00928,-4.88184 0.31983,-0.88672 0.63379,-1.76953 0.94776,-2.65625 0,0 2.90088,4.33789 2.90088,4.33789 -0.11475,0.89844 -0.22852,1.79688 -0.33203,2.69727 0.31347,0.28809 0.63964,0.57715 0.95361,0.8623 0.27197,2.60547 0.64599,6.66993 2.97998,8.33106 -0.29102,1.27148 -0.56787,2.52832 -0.85107,3.79199 0.40966,0.20606 0.82666,0.40918 1.23535,0.62402 0.47802,1.14454 0.95947,2.28614 1.43017,3.4375 0.81494,2.5 2.89014,6.18848 2.48438,8.81934 -0.13184,0.87598 -0.40235,1.74219 -0.57764,2.61133 0.27881,0.27441 0.55518,0.53418 0.82568,0.80078 -0.72949,1.0293 -1.44677,2.05566 -2.1831,3.08984 -0.13867,1.16016 0.084,2.48145 0.88672,3.3877 0.35644,0.33594 0.71728,0.67187 1.07812,1.01855 0.90088,1.77051 1.81055,3.53125 2.72901,5.30176 0.35351,0.16895 0.72168,0.35742 1.08447,0.53613 0.51172,0.0244 1.02637,0.0527 1.53223,0.0752 0.77197,1.08008 1.53711,2.14844 2.30957,3.21094 2.59961,1.6123 5.19873,3.29297 7.96728,4.62695 0.75342,0.20215 1.5376,0.39746 2.29834,0.6084 0.33887,0.65234 0.66309,1.31933 0.99512,1.98047 1.33349,0.42676 2.67187,0.8623 4.00439,1.29394 1.37598,-0.64062 3.54151,-1.97949 5.10987,-1.58105 0.71826,0.25488 1.4541,0.50879 2.18261,0.77637 1.44141,2.10839 2.88379,4.22167 4.31934,6.33105 0.95215,0.18652 1.89307,0.37207 2.8291,0.56445 0.69238,0.30957 1.37598,0.62989 2.05615,0.95996 -0.0718,0.28614 -0.13818,0.58399 -0.21093,0.88575 1.57519,0.30859 3.15429,0.61816 4.72753,0.93847 0.61182,0.6875 1.22657,1.36817 1.84131,2.04785 1.94922,0.40137 3.88868,0.79493 5.83203,1.19239 0.56934,0.67968 1.13965,1.3584 1.70704,2.03515 1.32519,1.66114 2.63574,3.31836 3.95605,4.96778 0.25488,0.24804 0.50684,0.48632 0.75391,0.7334 -0.24707,1.08593 -0.49903,2.16894 -0.75391,3.25097 0.22363,0.68262 0.43457,1.36133 0.65234,2.04004 0.36622,0.26758 0.73633,0.53906 1.10254,0.80859 0.42871,0.0293 0.84961,0.0508 1.27442,0.0811 0.19922,-0.5957 0.39648,-1.19238 0.59765,-1.77441 0.4502,0.41015 0.91407,0.8291 1.37305,1.24218 0.25879,0.76074 0.52441,1.51563 0.78906,2.26758 0.22461,0.35938 0.45313,0.73047 0.69043,1.0957 0.34375,0.39161 0.68653,0.78711 1.0293,1.18164 0.42187,0.0889 0.8291,0.18457 1.24902,0.26661 0.20508,-0.33887 0.39746,-0.67676 0.60547,-1.01563 1.00488,0.21875 2.02442,0.43457 3.03906,0.65527 0.72852,1.18457 1.46485,2.3711 2.20606,3.55469 1.32617,0.28125 2.64844,0.57129 3.96387,0.86231 0.1748,-0.79785 0.35449,-1.58985 0.54101,-2.39258 2.51465,-2.57813 5.42871,-1.59473 6.93164,1.32617 -0.2539,1.09863 -0.50195,2.2002 -0.74804,3.30371 0.36914,0.91797 0.74121,1.83008 1.10937,2.74219 0.22266,0.44141 0.44043,0.87891 0.66504,1.30957 -0.37988,1.7168 -0.76856,3.42578 -1.14941,5.1543 -0.38184,0.29296 -0.76368,0.59277 -1.1504,0.89843 -0.27636,1.23243 -0.54101,2.45215 -0.80761,3.67871 0.33105,0.47071 0.68066,0.92286 1.02636,1.38672 -2.13769,1.32227 -4.27148,2.64453 -6.39941,3.95703 -0.30176,1.41114 -0.61621,2.82422 -0.91992,4.22266 -1.54981,0.16992 -3.09766,0.31934 -4.65723,0.48242 -1.7207,2.47461 -3.44629,4.95215 -5.16601,7.42969 -0.0293,1.58887 -0.0498,3.18066 -0.0791,4.76074 0.9707,0.16406 1.94335,0.3252 2.9082,0.49317 -0.22363,0.77343 -0.45313,1.54687 -0.67676,2.31738 -1.97656,1.37402 -3.96289,2.75 -5.93457,4.12012 -0.15039,2.81054 -0.29004,5.60839 -0.43945,8.41406 0.98925,0.92285 1.99023,1.86328 2.97949,2.79199 2.43652,9.41992 4.94629,18.82617 7.50976,28.22168 -0.29003,1.38184 -0.57324,2.7793 -0.86425,4.16992 2.31836,2.66211 4.64062,5.3418 6.96679,7.98731 0.59668,0.14941 1.18848,0.28613 1.79102,0.43066 0.34961,0.38086 0.71484,0.77246 1.06934,1.14649 2.33203,2.5205 4.67871,5.02929 7.03808,7.52832 -0.3125,1.458 -0.62695,2.90429 -0.94629,4.37597 0.57129,0.54395 1.13867,1.08106 1.71387,1.61133 -0.55176,0.81055 -1.09863,1.61816 -1.64941,2.42481 -0.27051,1.26074 -0.54786,2.5332 -0.82422,3.7998 0.38086,0.25879 0.76172,0.51758 1.14355,0.77344 -0.31933,1.46386 -0.63769,2.93066 -0.95703,4.4082 -0.59766,0.20508 -1.19531,0.40527 -1.79785,0.60254 -0.0127,0.34473 -0.0205,0.6748 -0.0293,1.02148 0.28809,0.34864 0.58203,0.69336 0.88477,1.042 -0.60742,2.79882 -1.21094,5.62793 -1.82032,8.43847 -0.85058,1.11035 -1.69628,2.23731 -2.54687,3.34766 -0.48828,2.25391 -0.95801,4.50976 -1.43848,6.77344 0.88575,1.04297 0.98731,2.38769 -0.44238,2.89941 -0.23535,1.09863 -0.46582,2.19727 -0.69824,3.29297 0.3623,0.56348 0.72265,1.09863 1.08496,1.64648 -0.12207,0.59961 -0.24805,1.19629 -0.36816,1.77539 -0.27149,0.13379 -0.54395,0.28223 -0.82129,0.42969 0.62402,1.7041 0.61816,3.81543 -0.73633,5.1543 -0.42676,0.90137 -0.85059,1.79785 -1.28418,2.69141 -0.33692,1.63964 -0.68848,3.28222 -1.03223,4.91503 -0.91015,0.70606 -1.82031,1.41114 -2.72949,2.11036 -0.10938,0.55175 -0.22559,1.09179 -0.33301,1.64746 0.43945,0.67675 0.87305,1.33886 1.32227,2.0205 -0.66309,3.16114 -1.32227,6.30762 -1.98535,9.47559 0.21582,0.04883 0.43945,0.10254 0.65722,0.15723 -0.26562,1.27246 -0.53613,2.55078 -0.79687,3.81738 0.65136,0.14453 1.30176,0.2959 1.95508,0.44531 0.42187,-1.99707 0.84863,-3.99804 1.27734,-6.00097 0.36328,-0.66309 0.90137,-0.40723 1.18359,0.13574 -1.20703,5.58984 -2.40722,11.18262 -3.59961,16.76465 -0.46972,0.12207 -0.9414,0.23535 -1.41308,0.34472 -0.0967,0.42676 -0.18164,0.85547 -0.27246,1.28418 0.52734,0.92383 1.04882,1.85157 1.57031,2.77344 -0.42871,0.21875 -0.86133,0.4375 -1.2959,0.65332 -0.082,0.37207 -0.15918,0.74805 -0.24805,1.12109 0.78711,0.19434 1.58692,0.37012 2.37403,0.54297 0.33789,0.47754 0.67773,0.93457 1.02051,1.40821 -0.69043,0.14941 -1.39942,0.30273 -2.08497,0.45605 -0.12597,0.62793 -0.27246,1.24414 -0.40722,1.87012 0.27344,0.25293 0.54394,0.49902 0.82129,0.74219 0.27734,0.23144 0.55468,0.43945 0.84472,0.65039 0.10352,0.52539 0.20508,1.03222 0.30664,1.54394 0.46387,0.3916 0.917,0.77637 1.3711,1.1836 1.26465,0.20312 2.52051,0.3916 3.79199,0.5791 0.47266,0.51757 0.9541,1.02636 1.43555,1.51953 -0.0889,0.35058 -0.16895,0.7041 -0.2461,1.05078 0.31934,0.3291 0.64551,0.66504 0.97071,1.00098 1.36816,0.28418 2.73339,0.55371 4.10156,0.81836 1.08008,-0.44532 2.1582,-0.87403 3.23828,-1.32032 -0.92773,-0.17578 -1.8457,-0.3457 -2.76855,-0.51953 -0.91016,-0.94726 -1.80762,-1.89355 -2.7129,-2.8457 0.31348,-1.26172 0.62207,-2.52051 0.92286,-3.77735 -0.42286,-0.54882 -0.85254,-1.10351 -1.27344,-1.6582 -0.44629,-0.90332 0.0361,-1.6875 0.95898,-1.89844 0.64551,0.12598 1.28516,0.25293 1.93067,0.36817 0.24121,-0.97168 0.48535,-1.96875 0.72363,-2.93946 0.89746,-0.72265 1.79785,-1.43457 2.6875,-2.15917 0.18945,-0.74024 0.37598,-1.49415 0.5625,-2.23047 -0.81836,-0.9336 -1.63965,-1.87696 -2.45313,-2.81836 0.125,-0.55469 0.26465,-1.08594 0.38965,-1.63477 1.46875,-0.68555 2.93848,-1.37305 4.40528,-2.05469 0.17382,-0.72265 0.34179,-1.43066 0.52343,-2.14843 0,0 -0.89062,-1.04786 -0.89062,-1.04786 1.27637,-0.61621 2.54883,-1.22656 3.80469,-1.84277 0.085,-0.33594 0.17578,-0.67578 0.25976,-1.01074 -0.61133,-0.12012 -1.21191,-0.2334 -1.82422,-0.36328 0.32715,-1.30371 0.64551,-2.60059 0.95996,-3.89551 0.47071,0.45801 0.94141,0.90918 1.40723,1.36914 0.72266,0.13867 1.43457,0.27637 2.15234,0.41504 0.51954,-2.01953 1.03223,-4.05176 1.53321,-6.08594 2.44629,0.46289 4.90722,0.92481 7.37109,1.35938 2.83301,-1.35742 6.16895,-2.97364 8.13379,-5.51856 -0.15625,-1.40136 -0.31152,-2.79394 -0.47363,-4.18066 -0.73047,-1.06152 -1.45606,-2.125 -2.17871,-3.19043 0.0723,-0.29004 0.1416,-0.58008 0.22168,-0.85352 0.66894,0.16895 1.333,0.32618 2.00195,0.50196 -0.10156,0.37304 -0.19922,0.75488 -0.30566,1.14648 1.13867,0.1875 2.26855,0.39746 3.39648,0.5791 0.085,0.37012 0.16113,0.72461 0.24512,1.09278 1.29101,0.21093 2.59082,0.42773 3.88379,0.63769 1.17871,-0.63183 2.35156,-1.2832 3.53027,-1.93652 0.18945,-0.66309 0.36816,-1.31934 0.55273,-1.9834 0.33594,0.05566 0.67188,0.10937 1.01368,0.1709 0.24804,-0.9209 0.50097,-1.83008 0.74707,-2.73438 0.45312,0.05469 0.90625,0.14649 1.35742,0.21094 0.35644,0.21094 0.71387,0.41016 1.06347,0.61621 2.37793,-1.32617 4.75196,-2.67773 7.13086,-4.03516 -0.0205,-0.77929 -0.0351,-1.54199 -0.0605,-2.30957 2.76172,-1.59375 5.49902,-3.19238 8.2373,-4.81054 0.52735,-2.66211 1.04297,-5.3418 1.54981,-8.00293 4.2832,-1.75879 8.54004,-3.53418 12.79004,-5.3584 2.66406,0.38184 5.32324,0.76465 7.99511,1.13672 1.40039,-1.42969 2.79492,-2.86817 4.16895,-4.29395 1.79492,-1.4541 3.58691,-2.89941 5.36621,-4.34961 0.35156,-1 0.68945,-2.00097 1.03418,-2.99511 1.09082,-1.01075 2.16992,-2.02735 3.25586,-3.04786 0.92285,-1.81445 1.83984,-3.65429 2.74414,-5.47558 0.87988,-3.11817 1.74805,-6.22461 2.60644,-9.34277 2.19727,-1.38672 4.38965,-2.78321 6.58106,-4.18067 0.16113,-0.6084 0.33301,-1.21875 0.49316,-1.84082 3.88282,-2.64062 7.74805,-5.31836 11.59278,-8.02734 0.39746,-1.47754 0.79004,-2.96778 1.18945,-4.45606 0.28027,0.0459 0.58496,0.083 0.86719,0.13574 0.37597,-1.38964 0.74707,-2.80273 1.11035,-4.21289 -0.1582,-1.26562 -0.33203,-2.54687 -0.49121,-3.80664 -0.1836,-0.58105 -0.3711,-1.13867 -0.56348,-1.70117 -1.32519,-0.24023 -2.66894,-0.46972 -3.99512,-0.69824 -2.22558,-3.81348 -4.46289,-7.61426 -6.71191,-11.39551 -1.60742,-0.30762 -3.20996,-0.60644 -4.81348,-0.9209 -1.44629,-0.83398 -2.88867,-1.67187 -4.3291,-2.50488 -0.84961,0.0859 -1.7041,0.16309 -2.55176,0.24316 -0.68261,-0.13378 -1.35937,-0.27734 -2.04785,-0.40429 0.36231,-1.47852 0.71387,-2.95117 1.06153,-4.44043 -2.94141,-2.09473 -5.88282,-4.19238 -8.82422,-6.28321 -1.02246,0.41504 -2.03223,0.83204 -3.04883,1.26075 0.26367,-1.14942 0.53516,-2.28809 0.80176,-3.4209 -2.2334,-0.45899 -4.46387,-0.94141 -6.69532,-1.39844 -0.0957,-0.6582 -0.20019,-1.31641 -0.29687,-1.96582 0.91211,-0.74902 1.82519,-1.49805 2.74512,-2.26562 -0.50489,-4.25098 -1.04395,-8.48926 -1.57618,-12.73731 -1.50488,-1.85058 -5.13671,-7.74512 -7.72363,-7.45508 -1.23535,0.35742 -2.1123,-1.58691 -2.48828,-2.47363 -2.54199,-0.50391 -5.10644,-1.00586 -7.65332,-1.50781 -0.72656,-0.7461 -1.45703,-1.48242 -2.17969,-2.21778 -0.15918,-1.3291 -0.32031,-2.65332 -0.47265,-3.96972 -1.18946,-1.87989 -2.37207,-3.76758 -3.55762,-5.63672 -0.91113,-0.2002 -1.83496,-0.41113 -2.75684,-0.60352 0.12598,-1.1416 0.24512,-2.27929 0.36817,-3.40722 -0.86914,-0.71485 -1.74219,-1.42676 -2.61328,-2.13868 -0.60254,-0.20117 -1.19727,-0.39843 -1.80274,-0.59765 0.17481,-0.79297 0.35156,-1.5918 0.53028,-2.38672 -1.38672,-1.0166 -2.76856,-2.03809 -4.1543,-3.06543 -1.80371,1.15332 -3.60059,2.29199 -5.39063,3.44336 -0.63672,-0.97852 -1.25586,-1.95508 -1.88476,-2.93555 -1.72559,-0.38672 -3.44434,-0.77051 -5.16406,-1.14941 -0.7168,-1.12402 -1.43262,-2.25195 -2.15528,-3.37695 -1.34863,-1.19239 -2.69238,-2.38477 -4.04297,-3.58692 -1.98535,1.10449 -3.9834,2.20801 -5.96777,3.31445 0.33398,1.20606 0.8457,2.92579 0.24219,4.11231 -1.77246,2.49609 -4.05274,0.36328 -3.80469,-1.99707 0.80957,-1.04785 1.62891,-2.08301 2.44238,-3.12793 -0.25293,-0.64063 -0.48828,-1.27539 -0.74121,-1.90137 0.77832,-1.43262 1.54395,-2.86719 2.31641,-4.30469 -0.39844,-0.21875 -0.79688,-0.42871 -1.20117,-0.64843 -2.21387,1.4082 -4.42579,2.82226 -6.64454,4.22754 -0.88281,-0.22364 -1.76269,-0.44239 -2.64453,-0.67676 -0.10156,0.5 -0.22265,0.98926 -0.33105,1.47949 -2.50977,-0.50684 -4.7041,0.77051 -5.16113,3.29883 -1.4668,0.83984 -2.93262,1.6748 -4.39747,2.51465 -0.25488,1.10449 -0.49609,2.20508 -0.74316,3.30468 -0.60644,-0.1289 -1.21875,-0.27148 -1.82812,-0.39453 0.29492,-1.28906 0.5791,-2.57617 0.87011,-3.8623 -2.6914,-4.54981 -7.82422,-5.41309 -12.23828,-3.03125 -0.7793,-0.16602 -1.5498,-0.33594 -2.3418,-0.50684 -0.94042,-1.40625 -2.66601,-3.82812 -4.63671,-3.47754 -0.7959,-1.4375 -1.58789,-2.87597 -2.37891,-4.3125 0.59961,-2.59277 1.20215,-5.19629 1.80273,-7.78027 0.47168,0.0967 0.94141,0.20117 1.4209,0.2959 0.59668,-2.58692 1.20508,-5.16016 1.81348,-7.74219 -1.59766,-1.31445 -3.19531,-2.64746 -4.79492,-3.96484 -1.34961,-0.26367 -2.6836,-0.53809 -4.03321,-0.80274 -1.27929,0.49121 -2.54589,0.98633 -3.81836,1.4795 -1.7871,-0.34864 -3.57714,-0.70606 -5.35546,-1.05762 -1.34668,0.3623 -2.6919,0.71875 -4.02442,1.07715 1.30762,-1.23536 2.62354,-2.45703 3.9375,-3.68653 0.52539,-1.92675 1.05567,-3.85254 1.59375,-5.77832 0.46973,-0.47461 0.94141,-0.92773 1.41113,-1.39258 0.40235,-1.6289 0.81348,-3.26367 1.21875,-4.8955 0.56055,-0.33106 1.12208,-0.64356 1.68262,-0.96582 0.44531,-1.80078 0.89356,-3.59864 1.35254,-5.38965 -4.34473,0.76562 -8.68652,1.5498 -13.03613,2.35937 -0.43457,1.73633 -0.87988,3.46387 -1.30811,5.19825 -0.67187,1.17578 -2.89599,5.47167 -4.6084,4.43261 -1.1289,-0.35449 -0.42822,-1.18164 0.22266,-1.59472 -1.20557,-0.21973 -2.42529,-0.44629 -3.64307,-0.65332 -1.79687,1.13574 -4.21045,2.08203 -6.33252,1.37597 -5.08544,-3.95019 -8.59619,-10.31543 -6.95361,-16.80371 0.67627,-2.49414 1.34961,-4.99316 2.03223,-7.49414 1.09619,-0.80566 2.19482,-1.62793 3.29199,-2.44043 0.25977,-0.5332 0.51318,-1.06641 0.77246,-1.5918 -0.43994,-0.0693 -0.88672,-0.13183 -1.32129,-0.19238 0,0 56.87988,-38.07226 56.87988,-38.07226 0,0 48.48536,72.45117 48.48536,72.45117 z"
         style="fill:none;stroke:#000000;stroke-width:1.6;stroke-linecap:butt;stroke-linejoin:miter;stroke-miterlimit:4;stroke-opacity:1;stroke-dasharray:none"
         id="path24"
         inkscape:connector-curvature="0" /><path
         d="m 583.77344,-490.46094 c 0,0 -22.59278,15.22412 -22.59278,15.22412 0,0 -29.3916,-43.59716 -29.3916,-43.59716 -6.20605,-9.22266 -10.71777,-14.8667 -13.50976,-16.91748 -2.79492,-2.05811 -5.79004,-3.09815 -8.98242,-3.13086 -3.19532,-0.0308 -6.32618,0.98632 -9.39551,3.05371 -3.93262,2.64892 -6.7334,6.10449 -8.41309,10.35693 -1.68555,4.24365 -1.91015,8.52686 -0.67773,12.84717 1.22656,4.31885 5.05371,11.25195 11.49121,20.80029 0,0 26.0791,38.69727 26.0791,38.69727 0,0 -22.59961,15.22119 -22.59961,15.22119 0,0 -57.59473,-85.46436 -57.59473,-85.46436 0,0 21.04786,-14.18261 21.04786,-14.18261 0,0 8.46191,12.55908 8.46191,12.55908 0.96094,-14.6792 7.11133,-25.83106 18.44238,-33.47168 4.99219,-3.36182 10.16016,-5.54199 15.5127,-6.52783 5.33691,-0.98926 10.00879,-0.80274 14.01758,0.55615 4,1.35547 7.61132,3.53125 10.82519,6.50635 3.21387,2.97998 7.05078,7.77002 11.49707,14.36474 0,0 35.78223,53.10498 35.78223,53.10498 z"
         style="fill:none;stroke:#000000;stroke-width:1;stroke-linecap:butt;stroke-linejoin:miter;stroke-miterlimit:4;stroke-opacity:0;stroke-dasharray:none"
         id="path28"
         inkscape:connector-curvature="0" /><path
         d="m 612.68164,-509.94971 c 0,0 -22.59082,15.22998 -22.59082,15.22998 0,0 -57.58984,-85.46728 -57.58984,-85.46728 0,0 21.04297,-14.1792 21.04297,-14.1792 0,0 8.18457,12.15185 8.18457,12.15185 -0.26465,-8.16308 0.41015,-14.11962 2.05566,-17.86962 1.64844,-3.75635 4.29199,-6.85938 7.9375,-9.31739 5.14648,-3.46338 11.0752,-5.38476 17.75879,-5.75293 0,0 6.33887,24.44239 6.33887,24.44239 -5.48536,0.10937 -9.86036,1.26513 -13.14844,3.47607 -3.1709,2.14307 -5.27246,4.82715 -6.30762,8.05371 -1.0332,3.23242 -0.64453,7.55127 1.16113,12.95899 1.79981,5.40966 7.6084,15.38134 17.38575,29.90625 0,0 17.77148,26.36718 17.77148,26.36718 z"
         style="fill:none;stroke:#000000;stroke-width:1;stroke-linecap:butt;stroke-linejoin:miter;stroke-miterlimit:4;stroke-opacity:0;stroke-dasharray:none"
         id="path32"
         inkscape:connector-curvature="0" /><path
         d="m 342.74316,-397.45898 c 0,0 -1.36816,-2.02491 -1.36816,-2.02491 0,0 -3.32617,2.2251 -3.32617,2.2251 0,0 -1.85645,-2.75049 -1.85645,-2.75049 1.42285,0.53467 0.54395,-1.40332 0.54395,-1.40332 0,0 4.78808,-3.21435 4.78808,-3.21435 0,0 -1.5625,-2.30616 -1.5625,-2.30616 0,0 -5.94726,3.97657 -5.94726,3.97657 0,0 -0.67578,-0.38233 -0.67578,-0.38233 -8.37305,-4.68847 -6.2666,3.08936 -6.2666,3.08936 -17.91407,6.62939 -23.69825,19.15283 -23.69825,19.15283 0,0 -1.66406,0.33496 -1.66406,0.33496 0,0 -1.9956,-0.86914 -1.9956,-0.86914 0,0 -4.41651,5.69922 -4.41651,5.69922 0,0 1.00147,0.82226 1.00147,0.82226 0,0 0.62158,-0.51074 0.62158,-0.51074 0,0 2.07422,0.92285 2.07422,0.92285 0,0 -0.52881,-1.11914 -0.52881,-1.11914 0,0 2.84619,-2.95019 2.84619,-2.95019 0,0 3.47266,-1.85352 3.47266,-1.85352 5.42773,-10.24316 22.94531,-17.2334 22.94531,-17.2334 0,0 1.85156,2.77051 1.85156,2.77051 -1.84082,1.36524 -8.68066,6.03321 -12.64355,2.83496 0,0 -0.98926,0.66992 -0.98926,0.66992 0,0 4.21094,4.21973 14.13867,-2.75 0,0 1.12305,1.67872 1.12305,1.67872 0,0 -5.32227,3.57324 -5.32227,3.57324 0,0 0.58692,0.86816 0.58692,0.86816 0,0 0.97754,-0.64746 0.97754,-0.64746 0,0 0.72265,1.08789 0.72265,1.08789 0,0 -4.57226,3.05371 -4.57226,3.05371 0,0 -1.35059,-2.0459 -1.35059,-2.0459 0,0 -1.61523,1.07813 -1.61523,1.07813 0,0 -0.72364,-1.06738 -0.72364,-1.06738 0,0 0.10352,-1.69629 0.10352,-1.69629 0,0 -1.31153,0.87304 -1.31153,0.87304 0,0 -25.21826,16.87598 -25.21826,16.87598 0,0 -1.88769,-2.83789 -1.88769,-2.83789 0,0 -1.51856,1.02246 -1.51856,1.02246 0,0 1.84424,2.76953 1.84424,2.76953 0,0 -24.29443,16.26367 -24.29443,16.26367 0,0 1.27344,0.24707 1.27344,0.24707 0,0 1.72558,0.34668 1.72558,0.34668 0,0 0.93897,1.40137 0.93897,1.40137 0,0 -1.25879,6.36817 -1.25879,6.36817 0,0 -3.25244,2.17382 -3.25244,2.17382 0,0 -2.47364,-3.69726 -2.47364,-3.69726 0,0 -1.52441,1.02246 -1.52441,1.02246 0,0 2.479,3.68457 2.479,3.68457 0,0 -0.88135,0.58691 -0.88135,0.58691 0,0 -2.46728,-3.69629 -2.46728,-3.69629 0,0 -1.74268,1.16309 -1.74268,1.16309 0,0 2.47217,3.7041 2.47217,3.7041 0,0 -2.90674,1.93848 -2.90674,1.93848 0,0 2.96729,4.41113 2.96729,4.41113 0,0 6.29101,1.2666 6.29101,1.2666 0,0 86.67872,-58.00976 86.67872,-58.00976 0,0 0.58105,0.87207 0.58105,0.87207 0,0 2.46582,-1.64551 2.46582,-1.64551 0,0 -0.6748,-1.0127 -0.6748,-1.0127 0,0 1.01171,-0.68359 1.01171,-0.68359 0,0 -7.18261,-10.7207 -7.18261,-10.7207 0,0 -9.40821,6.29883 -9.40821,6.29883 z"
         style="fill:none;stroke:#000000;stroke-width:1;stroke-linecap:butt;stroke-linejoin:miter;stroke-miterlimit:4;stroke-opacity:0;stroke-dasharray:none"
         id="path36"
         inkscape:connector-curvature="0" /><path
         d="m 371.4541,-390.3252 c 0,0 2.02539,-1.36425 2.02539,-1.36425 0,0 2.22559,3.33593 2.22559,3.33593 0,0 2.76074,-1.84375 2.76074,-1.84375 -1.50098,-0.0508 0.042,-1.50293 0.042,-1.50293 0,0 -3.20215,-4.78222 -3.20215,-4.78222 0,0 2.33106,-1.55762 2.33106,-1.55762 0,0 3.96777,5.94238 3.96777,5.94238 0,0 0.77832,-0.0889 0.77832,-0.0889 9.5293,-1.12989 4.61426,5.24804 4.61426,5.24804 14.02246,12.95996 14.58887,26.74707 14.58887,26.74707 0,0 1.41797,0.94629 1.41797,0.94629 0,0 2.17285,-0.043 2.17285,-0.043 0,0 1.90234,6.95606 1.90234,6.95606 0,0 -1.23242,0.37305 -1.23242,0.37305 0,0 -0.37012,-0.70411 -0.37012,-0.70411 0,0 -2.28027,0.0508 -2.28027,0.0508 0,0 0.91797,-0.82422 0.91797,-0.82422 0,0 -1.50977,-3.82715 -1.50977,-3.82715 0,0 -2.50195,-3.03125 -2.50195,-3.03125 -1.10449,-11.53711 -14.62598,-24.67774 -14.62598,-24.67774 0,0 -2.77539,1.85157 -2.77539,1.85157 1.17578,1.96289 5.73047,8.89453 10.60352,7.44629 0,0 0.66992,0.99609 0.66992,0.99609 0,0 -5.51367,2.29687 -12.02832,-7.94141 0,0 -1.68262,1.12891 -1.68262,1.12891 0,0 3.55469,5.33496 3.55469,5.33496 0,0 -0.8584,0.58203 -0.8584,0.58203 0,0 -0.66211,-0.9707 -0.66211,-0.9707 0,0 -1.08691,0.71484 -1.08691,0.71484 0,0 3.05273,4.57031 3.05273,4.57031 0,0 2.0459,-1.36718 2.0459,-1.36718 0,0 1.07129,1.61914 1.07129,1.61914 0,0 1.06738,-0.71875 1.06738,-0.71875 0,0 0.56836,-1.61328 0.56836,-1.61328 0,0 0.87403,1.31054 0.87403,1.31054 0,0 16.86328,25.21192 16.86328,25.21192 0,0 2.83691,-1.88575 2.83691,-1.88575 0,0 1.01856,1.5254 1.01856,1.5254 0,0 -2.77344,1.85156 -2.77344,1.85156 0,0 16.26074,24.30566 16.26074,24.30566 0,0 -1.2666,-0.26172 -1.2666,-0.26172 0,0 -1.73731,-0.33496 -1.73731,-0.33496 0,0 -1.40527,0.94141 -1.40527,0.94141 0,0 -1.25586,6.35937 -1.25586,6.35937 0,0 2.17676,3.26172 2.17676,3.26172 0,0 3.6914,-2.48144 3.6914,-2.48144 0,0 1.02833,1.51855 1.02833,1.51855 0,0 -3.69922,2.4834 -3.69922,2.4834 0,0 0.58398,0.8584 0.58398,0.8584 0,0 3.69727,-2.45801 3.69727,-2.45801 0,0 1.15918,1.73242 1.15918,1.73242 0,0 -3.69043,2.47364 -3.69043,2.47364 0,0 1.93554,2.89746 1.93554,2.89746 0,0 -4.42382,2.95605 -4.42382,2.95605 0,0 -6.28223,-1.2373 -6.28223,-1.2373 0,0 -58,-86.69239 -58,-86.69239 0,0 -0.87988,0.58692 -0.87988,0.58692 0,0 -1.64649,-2.46289 -1.64649,-2.46289 0,0 1.01856,-0.68262 1.01856,-0.68262 0,0 -0.68164,-1.02148 -0.68164,-1.02148 0,0 10.73925,-7.17725 10.73925,-7.17725 0,0 6.2959,9.43603 6.2959,9.43603 z"
         style="fill:none;stroke:#000000;stroke-width:1;stroke-linecap:butt;stroke-linejoin:miter;stroke-miterlimit:4;stroke-opacity:0;stroke-dasharray:none"
         id="path40"
         inkscape:connector-curvature="0" /><path
         d="m 345.49805,-407.20117 c 0,0 -2.04004,1.36035 -2.04004,1.36035 0,0 -2.22949,-3.34033 -2.22949,-3.34033 0,0 -2.75,1.8457 -2.75,1.8457 1.50097,0.043 -0.042,1.50391 -0.042,1.50391 0,0 3.20215,4.77295 3.20215,4.77295 0,0 -2.32324,1.5625 -2.32324,1.5625 0,0 -3.98047,-5.94873 -3.98047,-5.94873 0,0 -0.7666,0.10595 -0.7666,0.10595 -9.53418,1.12793 -4.61621,-5.2539 -4.61621,-5.2539 -14.02539,-12.97315 -14.59863,-26.7583 -14.59863,-26.7583 0,0 -1.40723,-0.93213 -1.40723,-0.93213 0,0 -2.1709,0.04 -2.1709,0.04 0,0 -1.90234,-6.95166 -1.90234,-6.95166 0,0 1.22754,-0.38086 1.22754,-0.38086 0,0 0.36718,0.69824 0.36718,0.69824 0,0 2.27539,-0.0493 2.27539,-0.0493 0,0 -0.90429,0.81641 -0.90429,0.81641 0,0 1.50195,3.82422 1.50195,3.82422 0,0 2.50879,3.03857 2.50879,3.03857 1.10254,11.54492 14.62109,24.6919 14.62109,24.6919 0,0 2.75977,-1.85791 2.75977,-1.85791 -1.16895,-1.96631 -5.70996,-8.89014 -10.58496,-7.43897 0,0 -0.66699,-1.00781 -0.66699,-1.00781 0,0 5.50683,-2.29102 12.00683,7.94433 0,0 1.70899,-1.12793 1.70899,-1.12793 0,0 -3.57325,-5.33544 -3.57325,-5.33544 0,0 0.8711,-0.57325 0.8711,-0.57325 0,0 0.66211,0.97364 0.66211,0.97364 0,0 1.08496,-0.7378 1.08496,-0.7378 0,0 -3.05762,-4.5625 -3.05762,-4.5625 0,0 -2.0459,1.36377 -2.0459,1.36377 0,0 -1.08008,-1.60547 -1.08008,-1.60547 0,0 -1.05957,0.71192 -1.05957,0.71192 0,0 -0.55957,1.61621 -0.55957,1.61621 0,0 -0.88086,-1.31445 -0.88086,-1.31445 0,0 -16.87207,-25.21436 -16.87207,-25.21436 0,0 -2.82226,1.88428 -2.82226,1.88428 0,0 -1.02149,-1.52198 -1.02149,-1.52198 0,0 2.77149,-1.85351 2.77149,-1.85351 0,0 -16.25,-24.30078 -16.25,-24.30078 0,0 1.25586,0.26318 1.25586,0.26318 0,0 1.72998,0.3374 1.72998,0.3374 0,0 1.41211,-0.94726 1.41211,-0.94726 0,0 1.25976,-6.35108 1.25976,-6.35108 0,0 -2.18408,-3.25732 -2.18408,-3.25732 0,0 -3.69092,2.46826 -3.69092,2.46826 0,0 -1.01367,-1.52051 -1.01367,-1.52051 0,0 3.68506,-2.47021 3.68506,-2.47021 0,0 -0.57275,-0.87207 -0.57275,-0.87207 0,0 -3.70264,2.47168 -3.70264,2.47168 0,0 -1.15772,-1.74707 -1.15772,-1.74707 0,0 3.68995,-2.4624 3.68995,-2.4624 0,0 -1.93604,-2.9043 -1.93604,-2.9043 0,0 4.42725,-2.95654 4.42725,-2.95654 0,0 6.27783,1.24609 6.27783,1.24609 0,0 58.00049,86.67871 58.00049,86.67871 0,0 0.86914,-0.57812 0.86914,-0.57812 0,0 1.65918,2.4624 1.65918,2.4624 0,0 -1.02637,0.68554 -1.02637,0.68554 0,0 0.68262,1.00928 0.68262,1.00928 0,0 -10.72364,7.18311 -10.72364,7.18311 0,0 -6.30468,-9.42627 -6.30468,-9.42627 z"
         style="fill:none;stroke:#000000;stroke-width:1;stroke-linecap:butt;stroke-linejoin:miter;stroke-miterlimit:4;stroke-opacity:0;stroke-dasharray:none"
         id="path44"
         inkscape:connector-curvature="0" /><path
         d="m 374.75684,-402.83008 c 0,0 1.35937,2.03028 1.35937,2.03028 0,0 3.33399,-2.23096 3.33399,-2.23096 0,0 1.83984,2.75195 1.83984,2.75195 -1.41113,-0.52392 -0.53027,1.39893 -0.53027,1.39893 0,0 -4.78418,3.19873 -4.78418,3.19873 0,0 1.5498,2.33545 1.5498,2.33545 0,0 5.9541,-3.98535 5.9541,-3.98535 0,0 0.66895,0.3833 0.66895,0.3833 8.37207,4.67822 6.27246,-3.08448 6.27246,-3.08448 17.90625,-6.63623 23.69824,-19.15918 23.69824,-19.15918 0,0 1.66504,-0.333 1.66504,-0.333 0,0 1.99707,0.86425 1.99707,0.86425 0,0 4.41406,-5.69775 4.41406,-5.69775 0,0 -1.01367,-0.82715 -1.01367,-0.82715 0,0 -0.59668,0.51904 -0.59668,0.51904 0,0 -2.08594,-0.92431 -2.08594,-0.92431 0,0 0.53028,1.12304 0.53028,1.12304 0,0 -2.84571,2.95362 -2.84571,2.95362 0,0 -3.48828,1.84424 -3.48828,1.84424 -5.42187,10.2417 -22.9248,17.23681 -22.9248,17.23681 0,0 -1.85254,-2.76562 -1.85254,-2.76562 1.83496,-1.3667 8.66894,-6.05078 12.62988,-2.84571 0,0 0.99512,-0.67529 0.99512,-0.67529 0,0 -4.21094,-4.20752 -14.1377,2.76904 0,0 -1.12597,-1.69482 -1.12597,-1.69482 0,0 5.32422,-3.56982 5.32422,-3.56982 0,0 -0.57618,-0.86329 -0.57618,-0.86329 0,0 -0.98632,0.64405 -0.98632,0.64405 0,0 -0.71778,-1.0874 -0.71778,-1.0874 0,0 4.56055,-3.05713 4.56055,-3.05713 0,0 1.36523,2.04492 1.36523,2.04492 0,0 1.6045,-1.07715 1.6045,-1.07715 0,0 0.72265,1.06934 0.72265,1.06934 0,0 -0.0918,1.69775 -0.0918,1.69775 0,0 1.29882,-0.875 1.29882,-0.875 0,0 25.22266,-16.87158 25.22266,-16.87158 0,0 1.89355,2.83496 1.89355,2.83496 0,0 1.52051,-1.02588 1.52051,-1.02588 0,0 -1.85742,-2.77051 -1.85742,-2.77051 0,0 24.29883,-16.26416 24.29883,-16.26416 0,0 -1.27149,-0.24951 -1.27149,-0.24951 0,0 -1.72558,-0.34668 -1.72558,-0.34668 0,0 -0.94727,-1.40185 -0.94727,-1.40185 0,0 1.26172,-6.35108 1.26172,-6.35108 0,0 3.26367,-2.18017 3.26367,-2.18017 0,0 2.4668,3.68847 2.4668,3.68847 0,0 1.5293,-1.01367 1.5293,-1.01367 0,0 -2.47071,-3.69482 -2.47071,-3.69482 0,0 0.875,-0.58692 0.875,-0.58692 0,0 2.47266,3.69434 2.47266,3.69434 0,0 1.73242,-1.16016 1.73242,-1.16016 0,0 -2.47656,-3.69433 -2.47656,-3.69433 0,0 2.90918,-1.94483 2.90918,-1.94483 0,0 -2.96582,-4.42334 -2.96582,-4.42334 0,0 -6.28223,-1.24512 -6.28223,-1.24512 0,0 -86.68457,57.99903 -86.68457,57.99903 0,0 -0.58984,-0.86621 -0.58984,-0.86621 0,0 -2.4668,1.65039 -2.4668,1.65039 0,0 0.67969,1.01074 0.67969,1.01074 0,0 -1.01856,0.67627 -1.01856,0.67627 0,0 7.18262,10.72705 7.18262,10.72705 0,0 9.42188,-6.30176 9.42188,-6.30176 z"
         style="fill:none;stroke:#000000;stroke-width:2.5999999;stroke-miterlimit:4;stroke-opacity:0;stroke-dasharray:none"
         id="path46"
         inkscape:connector-curvature="0" /><path
         d="m 374.75684,-402.83008 c 0,0 1.35937,2.03028 1.35937,2.03028 0,0 3.33399,-2.23096 3.33399,-2.23096 0,0 1.83984,2.75195 1.83984,2.75195 -1.41113,-0.52392 -0.53027,1.39893 -0.53027,1.39893 0,0 -4.78418,3.19873 -4.78418,3.19873 0,0 1.5498,2.33545 1.5498,2.33545 0,0 5.9541,-3.98535 5.9541,-3.98535 0,0 0.66895,0.3833 0.66895,0.3833 8.37207,4.67822 6.27246,-3.08448 6.27246,-3.08448 17.90625,-6.63623 23.69824,-19.15918 23.69824,-19.15918 0,0 1.66504,-0.333 1.66504,-0.333 0,0 1.99707,0.86425 1.99707,0.86425 0,0 4.41406,-5.69775 4.41406,-5.69775 0,0 -1.01367,-0.82715 -1.01367,-0.82715 0,0 -0.59668,0.51904 -0.59668,0.51904 0,0 -2.08594,-0.92431 -2.08594,-0.92431 0,0 0.53028,1.12304 0.53028,1.12304 0,0 -2.84571,2.95362 -2.84571,2.95362 0,0 -3.48828,1.84424 -3.48828,1.84424 -5.42187,10.2417 -22.9248,17.23681 -22.9248,17.23681 0,0 -1.85254,-2.76562 -1.85254,-2.76562 1.83496,-1.3667 8.66894,-6.05078 12.62988,-2.84571 0,0 0.99512,-0.67529 0.99512,-0.67529 0,0 -4.21094,-4.20752 -14.1377,2.76904 0,0 -1.12597,-1.69482 -1.12597,-1.69482 0,0 5.32422,-3.56982 5.32422,-3.56982 0,0 -0.57618,-0.86329 -0.57618,-0.86329 0,0 -0.98632,0.64405 -0.98632,0.64405 0,0 -0.71778,-1.0874 -0.71778,-1.0874 0,0 4.56055,-3.05713 4.56055,-3.05713 0,0 1.36523,2.04492 1.36523,2.04492 0,0 1.6045,-1.07715 1.6045,-1.07715 0,0 0.72265,1.06934 0.72265,1.06934 0,0 -0.0918,1.69775 -0.0918,1.69775 0,0 1.29882,-0.875 1.29882,-0.875 0,0 25.22266,-16.87158 25.22266,-16.87158 0,0 1.89355,2.83496 1.89355,2.83496 0,0 1.52051,-1.02588 1.52051,-1.02588 0,0 -1.85742,-2.77051 -1.85742,-2.77051 0,0 24.29883,-16.26416 24.29883,-16.26416 0,0 -1.27149,-0.24951 -1.27149,-0.24951 0,0 -1.72558,-0.34668 -1.72558,-0.34668 0,0 -0.94727,-1.40185 -0.94727,-1.40185 0,0 1.26172,-6.35108 1.26172,-6.35108 0,0 3.26367,-2.18017 3.26367,-2.18017 0,0 2.4668,3.68847 2.4668,3.68847 0,0 1.5293,-1.01367 1.5293,-1.01367 0,0 -2.47071,-3.69482 -2.47071,-3.69482 0,0 0.875,-0.58692 0.875,-0.58692 0,0 2.47266,3.69434 2.47266,3.69434 0,0 1.73242,-1.16016 1.73242,-1.16016 0,0 -2.47656,-3.69433 -2.47656,-3.69433 0,0 2.90918,-1.94483 2.90918,-1.94483 0,0 -2.96582,-4.42334 -2.96582,-4.42334 0,0 -6.28223,-1.24512 -6.28223,-1.24512 0,0 -86.68457,57.99903 -86.68457,57.99903 0,0 -0.58984,-0.86621 -0.58984,-0.86621 0,0 -2.4668,1.65039 -2.4668,1.65039 0,0 0.67969,1.01074 0.67969,1.01074 0,0 -1.01856,0.67627 -1.01856,0.67627 0,0 7.18262,10.72705 7.18262,10.72705 0,0 9.42188,-6.30176 9.42188,-6.30176 z"
         style="fill:none;stroke:#000000;stroke-width:1;stroke-linecap:butt;stroke-linejoin:miter;stroke-miterlimit:4;stroke-opacity:0;stroke-dasharray:none"
         id="path48"
         inkscape:connector-curvature="0" /></g></g></svg>